<?xml version="1.0" standalone="no"?>
<!DOCTYPE svg PUBLIC "-//W3C//DTD SVG 20010904//EN"
 "http://www.w3.org/TR/2001/REC-SVG-20010904/DTD/svg10.dtd">
<svg version="1.0" xmlns="http://www.w3.org/2000/svg"
 width="109.000000pt" height="109.000000pt" viewBox="0 0 109.000000 109.000000"
 preserveAspectRatio="xMidYMid meet">
<metadata>
Created by potrace 1.14, written by Peter Selinger 2001-2017
</metadata>
<g transform="translate(0.000000,109.000000) scale(0.100000,-0.100000)"
fill="#000000" stroke="none">
<path d="M412 1050 c-102 -27 -166 -64 -242 -140 -77 -77 -113 -141 -140 -246
-25 -97 -25 -141 0 -238 25 -97 61 -165 126 -235 66 -71 145 -118 246 -148
101 -29 165 -29 266 0 101 30 180 77 246 148 64 69 99 132 125 229 26 93 26
146 1 244 -27 106 -63 169 -140 246 -77 77 -140 113 -246 140 -95 25 -148 24
-242 0z m237 -15 c253 -60 421 -305 384 -560 -42 -292 -325 -487 -611 -420
-226 53 -392 260 -392 490 0 320 308 563 619 490z"/>
<path d="M444 998 c3 -13 6 -31 6 -40 0 -10 5 -18 11 -18 6 0 9 7 5 15 -6 17
9 21 19 5 3 -5 14 -10 23 -10 16 1 16 1 0 11 -10 5 -18 21 -18 34 0 20 -5 25
-26 25 -22 0 -25 -3 -20 -22z m31 3 c3 -5 1 -12 -5 -16 -5 -3 -10 1 -10 9 0
18 6 21 15 7z"/>
<path d="M595 1010 c-3 -5 -1 -18 5 -29 14 -27 13 -34 -5 -27 -8 3 -15 1 -15
-5 0 -6 10 -9 23 -7 22 3 26 17 11 52 -5 14 -4 17 4 12 7 -4 12 -2 12 3 0 14
-27 14 -35 1z"/>
<path d="M357 993 c-2 -5 2 -23 9 -40 14 -33 37 -43 50 -21 5 7 2 9 -9 5 -9
-3 -18 0 -21 9 -3 8 0 14 7 14 7 0 4 5 -7 11 -15 9 -16 13 -5 20 11 7 11 9 -3
9 -9 0 -19 -3 -21 -7z"/>
<path d="M679 992 c12 -9 13 -15 3 -37 -14 -31 -15 -35 -3 -35 5 0 14 13 19
30 8 23 15 28 29 23 13 -4 15 -3 8 5 -5 6 -23 14 -40 17 -22 5 -26 4 -16 -3z"/>
<path d="M278 954 c-30 -16 -38 -30 -13 -20 10 4 22 -5 34 -24 23 -38 35 -28
13 11 -15 26 -15 31 -2 39 24 15 -2 11 -32 -6z"/>
<path d="M755 933 c-32 -48 21 -87 56 -42 20 26 24 39 11 39 -5 0 -14 -11 -20
-25 -6 -14 -18 -25 -27 -25 -19 0 -20 34 0 50 8 7 15 16 15 21 0 18 -18 8 -35
-18z"/>
<path d="M415 910 c-141 -45 -252 -188 -263 -338 -12 -177 98 -339 267 -392
203 -64 417 46 481 249 94 298 -186 576 -485 481z m51 -44 c2 -16 10 -36 19
-45 15 -15 17 -14 29 2 13 16 14 16 19 -3 3 -11 2 -18 -2 -15 -5 2 -14 -28
-21 -68 -19 -107 -29 -115 -30 -20 0 91 -5 113 -27 113 -8 0 -11 -4 -8 -10 13
-21 -17 -9 -41 17 l-25 27 -25 -32 c-25 -32 -44 -34 -44 -6 0 16 116 76 139
72 8 -2 15 -16 17 -32z m15 7 c-12 -20 -14 -14 -5 12 4 9 9 14 11 11 3 -2 0
-13 -6 -23z m44 -2 c-6 -5 -25 10 -25 20 0 5 6 4 14 -3 8 -7 12 -15 11 -17z
m76 19 c12 0 12 -27 0 -34 -5 -3 -17 6 -26 21 -16 24 -16 26 0 20 9 -4 21 -7
26 -7z m109 -25 c39 -19 45 -27 47 -56 2 -27 1 -30 -6 -14 -5 11 -20 30 -34
43 -25 23 -25 23 -39 3 -8 -11 -27 -23 -43 -26 -23 -5 -26 -4 -15 4 13 9 13
11 -2 11 -20 0 -24 15 -8 25 6 3 10 15 10 26 0 24 19 21 90 -16z m-144 -2 c17
-22 18 -46 2 -41 -12 4 -31 58 -21 58 3 0 12 -8 19 -17z m-53 -24 c-5 -16 -8
-18 -14 -7 -13 20 -11 38 5 32 8 -3 12 -13 9 -25z m197 -20 c0 -3 -7 -6 -15
-6 -17 0 -17 0 -9 22 5 13 8 14 15 3 5 -7 9 -16 9 -19z m-320 12 c0 -6 -4 -13
-10 -16 -5 -3 -10 1 -10 9 0 9 5 16 10 16 6 0 10 -4 10 -9z m205 -96 c-4 -47
-10 -84 -12 -81 -6 6 -32 124 -33 148 0 11 5 15 14 12 8 -3 17 0 21 6 14 23
17 0 10 -85z m-303 -188 l-5 -268 -27 26 c-16 15 -41 55 -57 88 -24 54 -28 74
-28 152 0 78 4 98 28 150 23 49 86 132 92 122 1 -1 0 -123 -3 -270z m560 182
c46 -73 60 -196 32 -289 -18 -60 -78 -160 -97 -160 -3 0 -6 121 -6 269 l1 270
27 -32 c15 -18 34 -44 43 -58z m-167 53 c-3 -3 -11 0 -18 7 -9 10 -8 11 6 5
10 -3 15 -9 12 -12z m-280 -21 c3 -5 2 -12 -3 -15 -5 -3 -9 1 -9 9 0 17 3 19
12 6z m272 -6 c0 -8 -4 -12 -9 -9 -5 3 -6 10 -3 15 9 13 12 11 12 -6z m43 -6
c0 -5 -4 -9 -8 -9 -5 0 -9 7 -9 15 0 8 4 12 9 9 4 -3 8 -9 8 -15z m-345 -7
c-3 -3 -11 0 -18 7 -9 10 -8 11 6 5 10 -3 15 -9 12 -12z m49 -22 c21 -8 26
-16 26 -45 0 -26 -3 -34 -12 -29 -9 5 -9 2 1 -9 8 -11 9 -17 2 -17 -14 0 -43
56 -39 77 2 9 -3 18 -11 21 -9 3 -11 0 -6 -8 5 -9 2 -10 -14 -5 -12 3 -21 3
-20 -2 6 -22 -15 -83 -27 -83 -15 0 -20 66 -6 86 13 22 68 29 106 14z m310 0
c17 -6 26 -17 26 -32 0 -21 -1 -21 -13 -3 -15 19 -39 13 -31 -8 2 -7 -4 -21
-15 -31 -19 -18 -20 -17 -26 18 -7 35 -35 52 -35 20 0 -8 -4 -12 -10 -9 -19
12 -10 33 18 43 36 14 55 14 86 2z m-197 -47 c-3 -10 -5 -2 -5 17 0 19 2 27 5
18 2 -10 2 -26 0 -35z m90 -100 c-3 -10 -5 -2 -5 17 0 19 2 27 5 18 2 -10 2
-26 0 -35z m77 20 c-9 -36 -12 -39 -20 -19 -7 20 1 46 16 46 6 0 8 -11 4 -27z
m53 -20 c-3 -10 -5 -2 -5 17 0 19 2 27 5 18 2 -10 2 -26 0 -35z m-425 13 c4
-17 1 -23 -9 -19 -14 6 -18 43 -4 43 5 0 11 -11 13 -24z m50 -8 c-6 -6 -16 -7
-23 -3 -9 6 -7 12 7 22 21 15 34 -1 16 -19z m357 -25 c1 -7 -3 -13 -9 -13 -5
0 -10 17 -9 38 1 33 2 34 9 12 4 -14 8 -31 9 -37z m-179 17 c0 -11 -2 -20 -4
-20 -2 0 -6 9 -9 20 -3 11 -1 20 4 20 5 0 9 -9 9 -20z m110 0 c0 -11 -7 -20
-15 -20 -17 0 -18 2 -9 24 9 23 24 20 24 -4z m-140 -11 c0 -5 -9 -9 -20 -9
-17 0 -19 2 -8 14 13 14 28 12 28 -5z m57 6 c0 -8 -4 -15 -9 -15 -10 0 -11 14
-1 23 9 10 10 9 10 -8z m-157 -9 c0 -3 -4 -8 -10 -11 -5 -3 -10 -1 -10 4 0 6
5 11 10 11 6 0 10 -2 10 -4z m-60 -21 c0 -10 -10 -15 -30 -15 -20 0 -30 5 -30
15 0 10 10 15 30 15 20 0 30 -5 30 -15z m305 5 c14 11 18 11 25 0 5 -7 18 -11
34 -8 14 3 26 1 26 -3 0 -5 -31 -9 -70 -9 -56 0 -70 3 -70 15 0 12 3 13 19 3
15 -9 23 -9 36 2z m-91 -6 c19 -7 22 -100 5 -124 -9 -13 -10 -12 -5 3 3 9 1
17 -4 17 -6 0 -10 -5 -10 -11 0 -5 -5 -7 -10 -4 -6 4 -10 16 -8 28 2 14 -2 22
-11 22 -8 0 -15 -8 -17 -19 -5 -35 -27 -77 -38 -73 -14 5 -16 149 -1 159 12 9
77 10 99 2z m-166 -41 c-10 -2 -28 -2 -40 0 -13 2 -5 4 17 4 22 1 32 -1 23 -4z
m29 -25 c-3 -7 -5 -2 -5 12 0 14 2 19 5 13 2 -7 2 -19 0 -25z m-13 -14 c12 -5
16 -20 16 -58 0 -28 -4 -46 -8 -40 -4 6 -15 13 -24 17 -16 6 -23 25 -19 50 0
4 -6 7 -14 7 -8 0 -14 -3 -13 -7 5 -18 -14 -51 -32 -56 -11 -3 -20 -16 -23
-33 -2 -16 -5 0 -6 37 0 39 4 70 11 77 13 13 85 16 112 6z m320 -10 c9 -8 16
-21 16 -27 0 -7 -8 -3 -16 8 -14 19 -16 19 -28 3 -7 -10 -18 -18 -25 -18 -16
0 -14 -13 7 -36 10 -10 21 -27 25 -36 5 -14 1 -18 -18 -18 -25 0 -30 11 -25
53 1 10 -4 16 -12 15 -8 -2 -12 5 -10 20 2 15 -2 22 -12 22 -13 0 -16 -12 -16
-55 0 -30 -4 -55 -10 -55 -6 0 -10 27 -10 60 0 46 4 61 18 69 27 16 98 13 116
-5z m-154 -58 c0 -3 -4 -8 -10 -11 -5 -3 -10 -1 -10 4 0 6 5 11 10 11 6 0 10
-2 10 -4z m-14 -73 c33 -12 10 -23 -51 -23 -37 0 -65 4 -65 10 0 6 21 8 58 4
l57 -7 -22 22 c-24 22 -31 37 -13 26 6 -3 11 0 11 7 1 7 4 3 6 -10 3 -13 11
-26 19 -29z m-56 28 c0 -6 -4 -13 -10 -16 -5 -3 -10 1 -10 9 0 9 5 16 10 16 6
0 10 -4 10 -9z m-166 -27 c3 -8 2 -12 -4 -9 -6 3 -10 10 -10 16 0 14 7 11 14
-7z m37 -8 c-10 -11 -8 -16 8 -21 12 -3 25 -3 31 0 5 3 10 -1 10 -9 0 -13 -13
-16 -70 -16 -74 0 -94 15 -35 26 19 3 39 12 46 20 6 8 14 14 16 14 3 0 0 -6
-6 -14z m362 -15 c3 -11 2 -22 -1 -25 -9 -10 -142 -6 -142 3 0 16 23 25 52 22
16 -1 28 2 28 8 0 6 13 11 29 11 20 0 30 -6 34 -19z m-163 -21 c0 -6 -26 -10
-59 -10 -33 0 -63 5 -66 10 -4 6 18 10 59 10 37 0 66 -4 66 -10z m-150 -35 c0
-12 16 -15 84 -15 65 0 85 3 90 15 4 11 21 15 63 15 l58 0 -25 -20 c-40 -31
-141 -53 -212 -48 -62 5 -168 42 -168 59 0 5 25 9 55 9 42 0 55 -3 55 -15z
m117 8 c-20 -2 -52 -2 -70 0 -17 2 0 4 38 4 39 0 53 -2 32 -4z"/>
<path d="M240 722 c0 -14 11 -21 26 -15 21 8 17 23 -6 23 -11 0 -20 -4 -20 -8z"/>
<path d="M215 690 c-4 -6 -4 -10 -1 -10 2 0 11 -3 20 -6 9 -3 16 -2 16 4 0 14
-28 23 -35 12z"/>
<path d="M205 650 c3 -5 14 -10 23 -10 15 0 15 2 2 10 -20 13 -33 13 -25 0z"/>
<path d="M196 618 c7 -11 34 -10 34 1 0 6 -9 9 -19 8 -11 0 -17 -5 -15 -9z"/>
<path d="M190 581 c0 -16 28 -20 34 -5 4 9 -1 14 -14 14 -11 0 -20 -4 -20 -9z"/>
<path d="M205 540 c-19 -8 -19 -9 3 -9 12 -1 22 4 22 9 0 6 -1 10 -2 9 -2 0
-12 -4 -23 -9z"/>
<path d="M193 495 c0 -10 6 -14 14 -10 8 3 17 5 19 5 3 0 2 5 -1 10 -10 16
-32 12 -32 -5z"/>
<path d="M200 460 c0 -13 11 -13 30 0 12 8 11 10 -7 10 -13 0 -23 -4 -23 -10z"/>
<path d="M214 424 c3 -9 6 -17 6 -20 0 -2 6 -1 14 2 18 7 9 34 -11 34 -10 0
-13 -6 -9 -16z"/>
<path d="M242 391 c-17 -10 -4 -41 14 -34 15 6 19 29 6 37 -4 2 -14 1 -20 -3z"/>
<path d="M810 709 c-12 -8 -10 -10 10 -5 24 5 24 5 5 -10 l-20 -16 20 4 c11 2
20 10 20 17 0 19 -16 23 -35 10z"/>
<path d="M830 670 c-13 -8 -13 -10 2 -10 9 0 20 5 23 10 8 13 -5 13 -25 0z"/>
<path d="M835 631 c-3 -5 -1 -12 5 -16 12 -7 30 2 30 16 0 12 -27 12 -35 0z"/>
<path d="M850 600 c-13 -8 -13 -11 2 -26 16 -17 18 -17 24 0 9 23 -7 38 -26
26z"/>
<path d="M844 548 c-3 -4 4 -8 15 -8 12 0 21 4 21 8 0 5 -7 9 -15 9 -9 0 -18
-4 -21 -9z"/>
<path d="M849 523 c-1 -5 -3 -18 -4 -29 -1 -12 -5 -26 -9 -32 -3 -6 -2 -13 4
-17 5 -3 10 1 10 10 0 10 5 13 12 9 6 -4 8 -3 4 4 -3 6 -1 14 6 18 8 5 6 10
-8 15 -17 7 -17 8 -1 8 10 1 15 6 12 11 -7 12 -24 13 -26 3z"/>
<path d="M825 420 c-7 -12 2 -30 16 -30 6 0 7 5 4 10 -3 6 -1 10 4 10 6 0 11
5 11 10 0 6 -6 10 -14 10 -8 0 -18 -4 -21 -10z"/>
<path d="M802 381 c-11 -6 -10 -10 4 -15 20 -8 32 0 18 14 -5 5 -15 5 -22 1z"/>
<path d="M217 863 c18 -45 28 -57 20 -24 -5 20 -3 23 19 18 13 -2 24 -1 24 3
0 5 -64 40 -75 40 -2 0 3 -17 12 -37z"/>
<path d="M840 855 l-24 -25 21 -21 c40 -41 95 10 57 52 -22 24 -26 24 -54 -6z
m50 -16 c0 -22 -22 -34 -46 -25 -15 6 -14 9 6 31 25 27 40 25 40 -6z"/>
<path d="M154 805 c22 -34 20 -38 -14 -30 -38 8 -37 -3 1 -33 28 -23 41 -18
17 6 -9 9 -7 12 10 12 20 0 21 3 11 21 -10 19 -8 20 10 14 31 -9 26 2 -9 20
-40 21 -45 19 -26 -10z"/>
<path d="M911 767 c-19 -12 -30 -22 -24 -24 14 -5 77 33 66 39 -4 3 -23 -4
-42 -15z"/>
<path d="M920 705 c-10 -12 -10 -21 -2 -40 14 -31 56 -34 72 -5 24 44 -38 83
-70 45z m58 -21 c4 -27 -26 -40 -46 -20 -13 13 -13 18 -2 31 18 21 44 15 48
-11z"/>
<path d="M125 655 c-5 -2 -23 -6 -38 -9 -16 -4 -25 -11 -21 -17 3 -6 13 -8 21
-5 8 3 11 2 8 -4 -3 -5 4 -14 15 -20 12 -6 20 -7 20 -1 0 5 -6 12 -12 15 -9 3
-7 9 6 20 20 16 20 26 1 21z"/>
<path d="M968 602 c-37 -3 -55 -22 -21 -22 13 0 14 -3 5 -12 -7 -7 -12 -19
-12 -27 0 -11 3 -10 14 4 8 11 19 16 30 12 10 -4 19 -1 22 8 11 29 0 40 -38
37z m32 -22 c0 -5 -4 -10 -10 -10 -5 0 -10 5 -10 10 0 6 5 10 10 10 6 0 10 -4
10 -10z"/>
<path d="M70 551 l-25 -7 29 -16 c29 -15 29 -15 8 -27 -33 -17 -27 -31 13 -31
19 0 35 4 35 9 0 5 -10 7 -22 5 l-23 -5 23 17 24 17 -24 13 c-17 10 -19 13 -6
14 9 0 20 5 23 10 7 11 -17 12 -55 1z"/>
<path d="M940 495 c-20 -24 -8 -49 28 -56 18 -4 35 -3 38 2 3 5 -4 9 -15 9
-31 0 -51 11 -51 27 0 11 9 14 35 11 39 -4 48 6 13 16 -32 8 -34 8 -48 -9z"/>
<path d="M132 436 c2 -14 -6 -22 -30 -30 -44 -15 -31 -27 14 -13 35 11 41 22
23 47 -8 13 -9 12 -7 -4z"/>
<path d="M920 400 c20 -13 33 -13 25 0 -3 6 -14 10 -23 10 -15 0 -15 -2 -2
-10z"/>
<path d="M928 383 c-31 -5 -35 -15 -13 -33 10 -8 15 -9 15 -1 0 6 11 13 25 17
14 3 22 10 19 15 -3 5 -8 8 -12 8 -4 -1 -19 -4 -34 -6z"/>
<path d="M132 340 l-23 -30 41 0 c23 0 40 5 40 11 0 7 -10 9 -24 7 -24 -5 -24
-4 -9 19 22 34 1 28 -25 -7z"/>
<path d="M886 341 c-3 -5 8 -14 26 -20 42 -15 53 -14 38 4 -7 9 -15 13 -18 11
-2 -3 -13 -1 -23 4 -10 6 -20 6 -23 1z"/>
<path d="M272 188 c-39 -24 -41 -31 -5 -22 23 6 25 4 20 -15 -3 -11 -1 -21 3
-21 9 0 26 68 18 75 -2 2 -18 -5 -36 -17z"/>
<path d="M738 198 c-7 -21 23 -69 40 -66 24 5 26 33 5 57 -20 23 -39 27 -45 9z
m27 -8 c3 -5 1 -10 -4 -10 -6 0 -11 5 -11 10 0 6 2 10 4 10 3 0 8 -4 11 -10z
m19 -41 c-3 -5 -10 -7 -15 -3 -5 3 -7 10 -3 15 3 5 10 7 15 3 5 -3 7 -10 3
-15z"/>
<path d="M371 139 c-15 -44 -14 -46 15 -53 53 -14 79 55 28 74 -33 13 -30 14
-43 -21z m53 -4 c2 -7 -2 -21 -9 -32 -19 -25 -40 -4 -31 31 6 26 30 27 40 1z"/>
<path d="M665 160 c-3 -5 -3 -16 2 -22 4 -7 8 -20 8 -28 0 -25 40 -18 43 8 2
12 -1 22 -7 22 -6 0 -8 7 -5 15 7 17 -31 22 -41 5z m45 -39 c0 -6 -4 -13 -10
-16 -5 -3 -10 1 -10 9 0 9 5 16 10 16 6 0 10 -4 10 -9z"/>
<path d="M584 135 c-4 -8 -3 -27 0 -41 9 -33 49 -30 54 4 6 41 -41 72 -54 37z
m36 -31 c0 -13 -4 -24 -9 -24 -13 0 -24 37 -16 50 10 16 25 1 25 -26z"/>
<path d="M528 100 c2 -22 9 -40 14 -40 6 0 7 7 4 16 -3 9 -6 27 -6 40 0 13 -3
24 -8 24 -4 0 -6 -18 -4 -40z"/>
</g>
</svg>
